<?xml version="1.0" encoding="UTF-8"?>
<!DOCTYPE svg PUBLIC "-//W3C//DTD SVG 1.1//EN" "http://www.w3.org/Graphics/SVG/1.1/DTD/svg11.dtd">
<!-- Creator: CorelDRAW (Evaluation Version) -->
<svg xmlns="http://www.w3.org/2000/svg" xml:space="preserve" width="100px" height="100px" version="1.1" style="shape-rendering:geometricPrecision; text-rendering:geometricPrecision; image-rendering:optimizeQuality; fill-rule:evenodd; clip-rule:evenodd"
viewBox="0 0 1.07 1.07"
 xmlns:xlink="http://www.w3.org/1999/xlink"
 xmlns:xodm="http://www.corel.com/coreldraw/odm/2003">
 <defs>
  <style type="text/css">
   <![CDATA[
    .fil1 {fill:#66461A}
    .fil0 {fill:#FECC4E}
   ]]>
  </style>
 </defs>
 <g id="PowerClip_x0020_Contents">
  <metadata id="CorelCorpID_0Corel-Layer"/>
  <g id="_2959365345984">
   <path class="fil0" d="M0 0.57c0,0 0.01,0.07 0.02,0.11 0.02,0.06 0.04,0.11 0.08,0.17 0.01,0.02 0.04,0.05 0.06,0.06 0.01,0.01 0.02,0.02 0.03,0.03 0.07,0.07 0.16,0.11 0.26,0.12 0.01,0.01 0.04,0.01 0.05,0.01l0.07 0c0.01,0 0.04,0 0.05,0 0.02,-0.01 0.04,-0.01 0.06,-0.02 0.15,-0.04 0.27,-0.14 0.34,-0.28 0.02,-0.04 0.04,-0.09 0.04,-0.14 0.01,-0.02 0.01,-0.05 0.01,-0.06l0 -0.07c0,0 -0.01,-0.07 -0.02,-0.1 -0.02,-0.1 -0.07,-0.18 -0.13,-0.24 -0.05,-0.04 -0.09,-0.07 -0.15,-0.11 -0.09,-0.04 -0.19,-0.05 -0.2,-0.05l-0.07 0c-0.01,0.01 -0.09,0 -0.2,0.05 -0.03,0.02 -0.05,0.03 -0.08,0.05 -0.03,0.03 -0.07,0.06 -0.1,0.09 0,0.01 -0.01,0.02 -0.02,0.04 -0.02,0.02 -0.03,0.05 -0.05,0.08 -0.02,0.04 -0.04,0.09 -0.04,0.14 -0.01,0.01 -0.01,0.05 -0.01,0.06l0 0.06z"/>
   <path class="fil1" d="M0.63 0.57c-0.01,0.15 0.14,0.15 0.14,0.02 0.01,-0.05 -0.01,-0.06 -0.02,-0.09 0.06,-0.03 0.12,-0.02 0.14,-0.04 0.01,-0.01 0.01,-0.04 -0.03,-0.04 -0.03,0 -0.06,0 -0.08,0.01 -0.07,0.01 -0.13,0.04 -0.18,0.09 0,0 -0.01,0.02 0,0.03 0.01,0.01 0.01,0.01 0.03,0.02z"/>
   <path class="fil1" d="M0.33 0.5c-0.01,0.01 -0.02,0.02 -0.02,0.04 -0.02,0.04 -0.01,0.1 0.03,0.13 0.05,0.04 0.11,-0.01 0.11,-0.1 0.01,-0.01 0.02,-0.01 0.02,-0.02 0.02,-0.03 -0.03,-0.06 -0.05,-0.07 -0.04,-0.03 -0.08,-0.04 -0.13,-0.05 -0.03,-0.01 -0.09,-0.02 -0.11,0 0,0.01 0,0.03 0,0.03 0.02,0.03 0.08,0.01 0.15,0.04z"/>
   <path class="fil1" d="M0.5 0.76c-0.07,0.01 -0.12,0.03 -0.16,0.08 -0.04,0.06 -0.02,0.08 0,0.06 0.06,-0.05 0.16,-0.06 0.23,-0.05 0.15,0.01 0.16,0.07 0.19,0.05 0.01,-0.01 -0.01,-0.04 -0.02,-0.05 -0.04,-0.06 -0.13,-0.1 -0.24,-0.09z"/>
  </g>
 </g>
</svg>
