<?xml version="1.0" encoding="UTF-8"?>
<!DOCTYPE svg PUBLIC "-//W3C//DTD SVG 1.1//EN" "http://www.w3.org/Graphics/SVG/1.1/DTD/svg11.dtd">
<!-- Creator: CorelDRAW (Evaluation Version) -->
<svg xmlns="http://www.w3.org/2000/svg" xml:space="preserve" width="100px" height="100px" version="1.1" style="shape-rendering:geometricPrecision; text-rendering:geometricPrecision; image-rendering:optimizeQuality; fill-rule:evenodd; clip-rule:evenodd"
viewBox="0 0 0.9 0.9"
 xmlns:xlink="http://www.w3.org/1999/xlink"
 xmlns:xodm="http://www.corel.com/coreldraw/odm/2003">
 <defs>
  <style type="text/css">
   <![CDATA[
    .fil1 {fill:#292F31}
    .fil2 {fill:#66461A}
    .fil0 {fill:#FECC4E}
   ]]>
  </style>
 </defs>
 <g id="PowerClip_x0020_Contents">
  <metadata id="CorelCorpID_0Corel-Layer"/>
  <g id="_2996634460176">
   <circle class="fil0" cx="0.45" cy="0.45" r="0.45"/>
   <path class="fil1" d="M0.06 0.23c-0.01,0 -0.03,0 -0.03,0.02 0,0 0,0.01 0,0.02 0,0 0,0 0,0.01 0.01,0 0.01,0.01 0.02,0.01 0,0 0,0 0.01,0 0.01,0.02 0.01,0.03 0.02,0.05 0,0.02 0.01,0.05 0.02,0.08 0.01,0.03 0.02,0.05 0.04,0.05 0.03,0.01 0.07,0.02 0.09,0.02 0.04,-0.01 0.09,-0.01 0.12,-0.03 0.05,-0.05 0.05,-0.13 0.06,-0.15 0.02,-0.02 0.07,-0.02 0.08,0 0,0.01 0.01,0.02 0.01,0.04 0,0.02 0.01,0.05 0.02,0.07 0.03,0.06 0.07,0.06 0.14,0.07 0.03,0 0.09,-0.01 0.11,-0.02 0.05,-0.05 0.04,-0.15 0.07,-0.17 0.01,-0.01 0.02,-0.02 0.02,-0.02 0.01,-0.01 0.01,-0.01 0.01,-0.02 0,0 0,-0.01 0,-0.02 0,-0.01 -0.02,-0.01 -0.03,-0.01 -0.07,-0.01 -0.22,-0.01 -0.3,0.01 -0.06,0.01 -0.13,0.01 -0.19,0 -0.07,-0.02 -0.22,-0.02 -0.29,-0.01z"/>
   <path class="fil2" d="M0.22 0.59c-0.01,0.01 -0.01,0.02 0,0.03 0,0 0.02,0.02 0.03,0.02 0,0.01 0.01,0.02 0.02,0.03 0,0 0,0 0,0 0.03,0.03 0.09,0.06 0.14,0.06 0.07,0.01 0.14,0 0.2,-0.05l0.02 -0.01c0.01,-0.02 0,-0.01 0.02,-0.02l0.01 -0.01c0,0 0,0 0,-0.01l0.02 -0.01c0,-0.01 0.01,-0.03 0,-0.03 -0.01,-0.01 -0.02,0.01 -0.03,0.01 -0.05,0.03 -0.1,0.05 -0.16,0.06 -0.09,0.01 -0.16,-0.02 -0.24,-0.06 -0.01,0 -0.02,-0.02 -0.03,-0.01z"/>
  </g>
 </g>
</svg>
