<?xml version="1.0" encoding="UTF-8"?>
<!DOCTYPE svg PUBLIC "-//W3C//DTD SVG 1.1//EN" "http://www.w3.org/Graphics/SVG/1.1/DTD/svg11.dtd">
<!-- Creator: CorelDRAW (Evaluation Version) -->
<svg xmlns="http://www.w3.org/2000/svg" xml:space="preserve" width="100px" height="100px" version="1.1" style="shape-rendering:geometricPrecision; text-rendering:geometricPrecision; image-rendering:optimizeQuality; fill-rule:evenodd; clip-rule:evenodd"
viewBox="0 0 1.05 1.05"
 xmlns:xlink="http://www.w3.org/1999/xlink"
 xmlns:xodm="http://www.corel.com/coreldraw/odm/2003">
 <defs>
  <style type="text/css">
   <![CDATA[
    .fil1 {fill:#66461A}
    .fil2 {fill:#CCD5DE}
    .fil0 {fill:#FECC4E}
   ]]>
  </style>
 </defs>
 <g id="PowerClip_x0020_Contents">
  <metadata id="CorelCorpID_0Corel-Layer"/>
  <g id="_2995449940624">
   <circle class="fil0" cx="0.52" cy="0.52" r="0.52"/>
   <path class="fil1" d="M0.5 0.63c-0.06,0 -0.13,0.02 -0.17,0.05 0,0.01 -0.01,0.01 -0.01,0.01 0,0 0,0 -0.01,0.01 0,0 -0.01,0.01 -0.01,0.01 0,0 -0.01,0.01 -0.01,0.01 -0.03,0.04 -0.06,0.09 -0.07,0.14 0,0.02 0,0.02 0.01,0.03 0.01,0 0.01,-0.01 0.02,-0.01 0.08,-0.03 0.21,-0.05 0.3,-0.05 0.06,0 0.13,0.01 0.19,0.03 0.02,0.01 0.03,0.01 0.05,0.02 0.01,0 0.03,0.02 0.04,0 0,-0.02 -0.02,-0.08 -0.03,-0.09 -0.01,-0.03 -0.02,-0.04 -0.04,-0.06 0,0 0,0 0,-0.01l-0.04 -0.04c-0.01,0 -0.01,0 -0.01,0 -0.06,-0.04 -0.13,-0.06 -0.21,-0.05z"/>
   <path class="fil1" d="M0.36 0.42c-0.02,0 -0.07,0.01 -0.14,0.04 -0.02,0.01 -0.04,0.02 -0.06,0.04 -0.01,0 -0.01,0.01 -0.01,0.02 0,0.01 0,0.02 0,0.02 0.02,0.02 0.03,0.01 0.05,0 0.05,-0.04 0.13,-0.06 0.2,-0.07 0.02,-0.01 0.06,0 0.06,-0.03 0.01,-0.02 -0.02,-0.04 -0.03,-0.05 -0.06,-0.04 -0.14,-0.07 -0.21,-0.07 -0.02,0 -0.03,0 -0.04,0.01 -0.01,0.01 -0.01,0.05 0.03,0.05 0.03,0 0.05,0 0.08,0.01 0.02,0.01 0.05,0.02 0.07,0.03z"/>
   <path class="fil1" d="M0.69 0.42c0.03,-0.03 0.11,-0.04 0.15,-0.04 0.04,0 0.04,-0.04 0.02,-0.05 -0.01,-0.01 -0.01,-0.01 -0.03,-0.01 -0.02,0 -0.03,0 -0.04,0.01 -0.06,0 -0.14,0.03 -0.19,0.07 -0.01,0.01 -0.02,0.02 -0.02,0.04 0,0.01 0.01,0.02 0.02,0.02 0.01,0.01 0.03,0.01 0.05,0.01 0.06,0 0.14,0.04 0.2,0.07 0.01,0.01 0.02,0.02 0.03,0.01 0.02,0 0.03,-0.03 0.01,-0.05 -0.04,-0.03 -0.11,-0.06 -0.16,-0.08 -0.01,0 -0.03,0 -0.04,0z"/>
   <path class="fil1" d="M0.4 0.12c-0.02,0.01 -0.02,0.01 -0.03,0.03 -0.01,0.03 -0.01,0.02 -0.02,0.04 -0.03,0.02 -0.08,0.04 -0.11,0.04 -0.01,0 -0.04,0 -0.05,0.01 -0.02,0.01 -0.03,0.05 0.02,0.05 0.06,0 0.09,-0.01 0.13,-0.03 0.02,-0.01 0.04,-0.02 0.05,-0.03 0.01,-0.01 0.02,-0.02 0.03,-0.03 0.01,-0.02 0.02,-0.05 0.01,-0.07 0,-0.01 -0.01,-0.02 -0.03,-0.01z"/>
   <path class="fil1" d="M0.63 0.12c-0.01,0 -0.02,0.01 -0.02,0.03 0,0.02 0.03,0.05 0.05,0.07l0.02 0.01c0.02,0.02 0.04,0.04 0.08,0.05 0.02,0 0.08,0.02 0.1,0 0.01,0 0.01,0 0.01,0 0.01,-0.01 0,-0.03 -0.01,-0.04 -0.02,-0.02 -0.07,0.01 -0.14,-0.05 -0.01,0 -0.01,0 -0.02,-0.01l-0.02 -0.03c-0.01,0 -0.01,-0.01 -0.01,-0.01 -0.01,-0.02 -0.02,-0.03 -0.04,-0.02z"/>
   <path class="fil2" d="M0.35 0.73l0.35 0c-0.01,-0.01 -0.03,-0.02 -0.04,-0.03 -0.08,-0.04 -0.19,-0.04 -0.28,0 0,0.01 -0.03,0.02 -0.03,0.03z"/>
  </g>
 </g>
</svg>
