<?xml version="1.0" encoding="UTF-8"?>
<!DOCTYPE svg PUBLIC "-//W3C//DTD SVG 1.1//EN" "http://www.w3.org/Graphics/SVG/1.1/DTD/svg11.dtd">
<!-- Creator: CorelDRAW (Evaluation Version) -->
<svg xmlns="http://www.w3.org/2000/svg" xml:space="preserve" width="100px" height="100px" version="1.1" style="shape-rendering:geometricPrecision; text-rendering:geometricPrecision; image-rendering:optimizeQuality; fill-rule:evenodd; clip-rule:evenodd"
viewBox="0 0 0.92 0.92"
 xmlns:xlink="http://www.w3.org/1999/xlink"
 xmlns:xodm="http://www.corel.com/coreldraw/odm/2003">
 <defs>
  <style type="text/css">
   <![CDATA[
    .fil1 {fill:#66461A}
    .fil2 {fill:#F8F8F6}
    .fil0 {fill:#FECC4E}
   ]]>
  </style>
 </defs>
 <g id="PowerClip_x0020_Contents">
  <metadata id="CorelCorpID_0Corel-Layer"/>
  <g id="_2996000129856">
   <circle class="fil0" cx="0.46" cy="0.46" r="0.46"/>
   <path class="fil1" d="M0.2 0.54c-0.01,0 -0.02,0 -0.03,0.01l0 0.02c-0.02,0.05 0.01,0.11 0.04,0.15 0,0 0,0 0.01,0 0,0.01 0.02,0.03 0.02,0.03l0.01 0.01c0.1,0.08 0.24,0.1 0.35,0.04 0.02,-0.01 0.04,-0.02 0.06,-0.04 0.01,0 0.01,0 0.01,-0.01 0.01,0 0.01,0 0.02,-0.01 0.03,-0.03 0.06,-0.08 0.06,-0.13 0.01,-0.04 0,-0.07 -0.04,-0.07 -0.01,0 -0.03,0 -0.05,0.01 -0.14,0.02 -0.22,0.02 -0.37,0 -0.02,0 -0.08,-0.01 -0.09,-0.01z"/>
   <path class="fil2" d="M0.7 0.59c-0.05,0.01 -0.06,0.02 -0.11,0.02 -0.08,0.01 -0.18,0.01 -0.26,0 -0.05,0 -0.07,-0.01 -0.11,-0.02 0,0.02 0.02,0.04 0.04,0.05 0.08,0.07 0.25,0.08 0.35,0.03 0.01,-0.01 0.05,-0.03 0.06,-0.04 0.01,-0.01 0.02,-0.02 0.03,-0.04z"/>
   <path class="fil1" d="M0.5 0.47c0.01,0 0.02,0 0.02,0 0.03,-0.02 0.07,-0.03 0.1,-0.03 0.03,0 0.06,0.01 0.09,0.02 0.01,0.01 0.02,0.02 0.03,0 0.01,-0.01 -0.01,-0.03 -0.02,-0.04l-0.01 -0.01c0,0 0,0 0,-0.01 -0.01,0 -0.01,0 -0.01,0 0,-0.01 -0.01,-0.01 -0.01,-0.01 0,-0.01 -0.01,-0.01 -0.01,-0.01 -0.05,-0.03 -0.1,-0.02 -0.13,0.01 -0.02,0.01 -0.03,0.03 -0.04,0.05 -0.01,0.01 -0.01,0.02 -0.01,0.03z"/>
   <path class="fil1" d="M0.41 0.47c-0.01,0 -0.02,0 -0.02,0 -0.02,-0.02 -0.06,-0.03 -0.09,-0.03 -0.03,0 -0.07,0.01 -0.09,0.02 -0.01,0.01 -0.02,0.02 -0.03,0 -0.01,-0.01 0.01,-0.03 0.02,-0.04l0.01 -0.01c0,0 0,0 0,-0.01 0,0 0,0 0.01,0 0,-0.01 0,-0.01 0.01,-0.01 0,-0.01 0.01,-0.01 0.01,-0.01 0.04,-0.03 0.09,-0.02 0.13,0.01 0.01,0.01 0.03,0.03 0.04,0.05 0,0.01 0.01,0.02 0,0.03z"/>
  </g>
 </g>
</svg>
