<?xml version="1.0" encoding="UTF-8"?>
<!DOCTYPE svg PUBLIC "-//W3C//DTD SVG 1.1//EN" "http://www.w3.org/Graphics/SVG/1.1/DTD/svg11.dtd">
<!-- Creator: CorelDRAW (Evaluation Version) -->
<svg xmlns="http://www.w3.org/2000/svg" xml:space="preserve" width="100px" height="100px" version="1.1" style="shape-rendering:geometricPrecision; text-rendering:geometricPrecision; image-rendering:optimizeQuality; fill-rule:evenodd; clip-rule:evenodd"
viewBox="0 0 0.98 0.98"
 xmlns:xlink="http://www.w3.org/1999/xlink"
 xmlns:xodm="http://www.corel.com/coreldraw/odm/2003">
 <defs>
  <style type="text/css">
   <![CDATA[
    .fil1 {fill:#66461A}
    .fil0 {fill:#FECC4E}
   ]]>
  </style>
 </defs>
 <g id="PowerClip_x0020_Contents">
  <metadata id="CorelCorpID_0Corel-Layer"/>
  <g id="_2995449947440">
   <circle class="fil0" cx="0.49" cy="0.49" r="0.49"/>
   <path class="fil1" d="M0.28 0.66c-0.01,0.01 -0.03,0.02 -0.02,0.04 0.01,0.02 0.03,0.02 0.05,0.02 0.03,0 0.38,0 0.39,0 0.01,0 0.02,-0.02 0.02,-0.04 -0.01,-0.02 -0.03,-0.02 -0.05,-0.02 -0.03,0 -0.38,0 -0.39,0z"/>
   <path class="fil1" d="M0.57 0.49l0.02 0c0.01,0 0.18,0 0.19,0 0.02,0 0.03,-0.03 0.02,-0.05 -0.01,-0.01 -0.01,-0.01 -0.03,-0.01 -0.05,0 -0.1,0 -0.15,0 -0.03,0 -0.06,0 -0.07,0.01 -0.01,0.02 -0.01,0.04 0.02,0.05z"/>
   <path class="fil1" d="M0.2 0.49l0.02 0c0.01,0 0.18,0 0.19,0 0.02,0 0.03,-0.03 0.01,-0.05 0,-0.01 -0.01,-0.01 -0.02,-0.01 -0.05,0 -0.1,0 -0.16,0 -0.02,0 -0.05,0 -0.06,0.01 -0.01,0.02 -0.01,0.04 0.02,0.05z"/>
  </g>
 </g>
</svg>
