<?xml version="1.0" encoding="UTF-8"?>
<!DOCTYPE svg PUBLIC "-//W3C//DTD SVG 1.1//EN" "http://www.w3.org/Graphics/SVG/1.1/DTD/svg11.dtd">
<!-- Creator: CorelDRAW (Evaluation Version) -->
<svg xmlns="http://www.w3.org/2000/svg" xml:space="preserve" width="100px" height="100px" version="1.1" style="shape-rendering:geometricPrecision; text-rendering:geometricPrecision; image-rendering:optimizeQuality; fill-rule:evenodd; clip-rule:evenodd"
viewBox="0 0 0.96 0.96"
 xmlns:xlink="http://www.w3.org/1999/xlink"
 xmlns:xodm="http://www.corel.com/coreldraw/odm/2003">
 <defs>
  <style type="text/css">
   <![CDATA[
    .fil1 {fill:#66461A}
    .fil0 {fill:#FECC4E}
   ]]>
  </style>
 </defs>
 <g id="PowerClip_x0020_Contents">
  <metadata id="CorelCorpID_0Corel-Layer"/>
  <g id="_2996634561360">
   <circle class="fil0" cx="0.48" cy="0.48" r="0.48"/>
   <path class="fil1" d="M0.29 0.61c-0.01,0.01 -0.01,0.01 -0.01,0.03 0.01,0.01 0.01,0.01 0.01,0.02 0.01,0 0.01,0.01 0.01,0.01 0,0 0,0 0.01,0.01 0,0 0,0 0,0l0.02 0.02c0.03,0.02 0.06,0.04 0.1,0.04 0.07,0.01 0.14,0 0.19,-0.04l0.01 -0.01c0.01,0 0.01,0 0.01,-0.01 0.01,0 0.01,0 0.01,-0.01 0.01,0 0.03,-0.03 0.03,-0.05 0,-0.01 -0.01,-0.01 -0.02,-0.01 -0.01,0 -0.01,0.01 -0.02,0.02 -0.07,0.04 -0.18,0.04 -0.25,0.02 -0.03,0 -0.06,-0.01 -0.09,-0.04 0,0 -0.01,0 -0.01,0z"/>
   <path class="fil1" d="M0.63 0.27c-0.02,0 -0.04,0.01 -0.04,0.03 -0.03,0.04 -0.02,0.09 0,0.13 0,0 0.01,0 0.01,0.01 0.06,0.04 0.11,-0.02 0.1,-0.09 0,-0.03 -0.01,-0.06 -0.04,-0.08 -0.01,0 -0.02,-0.01 -0.03,0z"/>
   <path class="fil1" d="M0.31 0.27c-0.07,0.01 -0.08,0.14 -0.02,0.17 0.03,0.02 0.06,0.01 0.07,-0.01 0.01,-0.01 0.01,-0.01 0.01,-0.01 0.02,-0.04 0.02,-0.1 -0.01,-0.13 -0.01,-0.01 -0.03,-0.03 -0.05,-0.02z"/>
  </g>
 </g>
</svg>
