<?xml version="1.0" encoding="UTF-8"?>
<!DOCTYPE svg PUBLIC "-//W3C//DTD SVG 1.1//EN" "http://www.w3.org/Graphics/SVG/1.1/DTD/svg11.dtd">
<!-- Creator: CorelDRAW (Evaluation Version) -->
<svg xmlns="http://www.w3.org/2000/svg" xml:space="preserve" width="100px" height="100px" version="1.1" style="shape-rendering:geometricPrecision; text-rendering:geometricPrecision; image-rendering:optimizeQuality; fill-rule:evenodd; clip-rule:evenodd"
viewBox="0 0 1 1"
 xmlns:xlink="http://www.w3.org/1999/xlink"
 xmlns:xodm="http://www.corel.com/coreldraw/odm/2003">
 <defs>
  <style type="text/css">
   <![CDATA[
    .fil1 {fill:#66461A}
    .fil0 {fill:#FECC4E}
   ]]>
  </style>
 </defs>
 <g id="PowerClip_x0020_Contents">
  <metadata id="CorelCorpID_0Corel-Layer"/>
  <g id="_2996634554976">
   <circle class="fil0" cx="0.5" cy="0.5" r="0.5"/>
   <path class="fil1" d="M0.49 0.68c-0.02,0 -0.03,0.01 -0.05,0.01 -0.02,0.01 -0.02,0.01 -0.04,0.02 -0.01,0.01 -0.01,0.02 -0.02,0.03 -0.01,0.01 -0.03,0.05 -0.03,0.06 0,0.01 0,0.02 0.01,0.02 0.01,0 0.01,0 0.01,-0.01 0.01,0 0.03,-0.01 0.04,-0.01 0.05,-0.01 0.17,-0.02 0.21,0.01 0.01,0 0.01,0.01 0.01,0.01 0.01,0 0.02,0 0.02,-0.01 0,-0.02 -0.02,-0.06 -0.04,-0.08 0,0 0,0 -0.01,-0.01 0,0 0,0 0,0 -0.01,-0.01 -0.01,-0.01 -0.02,-0.02 -0.03,-0.01 -0.06,-0.02 -0.09,-0.02z"/>
   <path class="fil1" d="M0.38 0.17c-0.01,0 -0.01,0.01 -0.02,0.03 -0.01,0.02 -0.02,0.03 -0.04,0.04 -0.02,0.02 -0.06,0.03 -0.09,0.04 -0.02,0 -0.05,-0.01 -0.06,0.01 -0.01,0.02 0,0.04 0.03,0.04 0.06,0 0.12,-0.01 0.16,-0.05 0.02,-0.02 0.01,0 0.03,-0.02 0.01,-0.02 0.03,-0.06 0.02,-0.07 0,-0.02 -0.01,-0.03 -0.03,-0.02z"/>
   <path class="fil1" d="M0.61 0.17c-0.01,0 -0.02,0 -0.02,0.01 0,0 -0.01,0.01 -0.01,0.02 0,0.01 0.02,0.03 0.02,0.03l0.02 0.02c0.03,0.03 0.06,0.06 0.1,0.07 0.02,0.01 0.07,0.02 0.09,0.01 0.02,0 0.03,-0.03 0.01,-0.04 -0.01,-0.02 -0.04,0 -0.1,-0.03 -0.02,-0.01 -0.05,-0.03 -0.06,-0.05 0,0 0,0 -0.01,0 -0.01,-0.02 -0.02,-0.05 -0.04,-0.04z"/>
   <path class="fil1" d="M0.41 0.5c0,0 0,0 0,0 0.01,-0.03 0,-0.08 -0.02,-0.1 -0.02,-0.02 -0.05,-0.02 -0.07,0.01 0,0.01 0,0.01 -0.01,0.02 -0.02,0.07 0.02,0.15 0.07,0.12 0.01,-0.01 0.01,-0.01 0.01,-0.01 0.01,-0.01 0.01,-0.02 0.02,-0.02 0,0 0,0 0,0l0 -0.02z"/>
   <path class="fil1" d="M0.69 0.5c0,0 0,0 0,0 0.01,-0.03 0,-0.08 -0.02,-0.1 -0.02,-0.02 -0.05,-0.02 -0.07,0.01 -0.01,0.01 -0.01,0.01 -0.01,0.02 -0.03,0.07 0.02,0.15 0.07,0.12 0,-0.01 0,-0.01 0.01,-0.01 0.01,-0.01 0.01,-0.02 0.01,-0.02 0,0 0,0 0,0l0.01 -0.02z"/>
  </g>
 </g>
</svg>
