<?xml version="1.0" encoding="UTF-8"?>
<!DOCTYPE svg PUBLIC "-//W3C//DTD SVG 1.1//EN" "http://www.w3.org/Graphics/SVG/1.1/DTD/svg11.dtd">
<!-- Creator: CorelDRAW (Evaluation Version) -->
<svg xmlns="http://www.w3.org/2000/svg" xml:space="preserve" width="100px" height="100px" version="1.1" style="shape-rendering:geometricPrecision; text-rendering:geometricPrecision; image-rendering:optimizeQuality; fill-rule:evenodd; clip-rule:evenodd"
viewBox="0 0 1.02 1.02"
 xmlns:xlink="http://www.w3.org/1999/xlink"
 xmlns:xodm="http://www.corel.com/coreldraw/odm/2003">
 <defs>
  <style type="text/css">
   <![CDATA[
    .fil1 {fill:#66461A}
    .fil0 {fill:#FECC4E}
   ]]>
  </style>
 </defs>
 <g id="PowerClip_x0020_Contents">
  <metadata id="CorelCorpID_0Corel-Layer"/>
  <g id="_2959438153952">
   <circle class="fil0" cx="0.51" cy="0.51" r="0.51"/>
   <path class="fil1" d="M0.3 0.77c-0.01,-0.01 -0.02,-0.03 -0.05,-0.01 0,0 0,0 0,0 -0.01,0.01 -0.01,0.03 0,0.04l0.02 0.03c0.01,0 0.02,0.02 0.04,0.01 0.01,0 0.02,-0.01 0.03,-0.02 0,-0.01 0,-0.01 0.01,-0.02 0.01,-0.01 0.04,-0.05 0.04,-0.06 0.01,0 0.07,0.09 0.08,0.1 0,0 0,0 0.01,0.01 0,0 0,0 0,0 0.01,0.01 0.01,0.02 0.03,0.02 0.01,0 0.02,0 0.02,-0.01l0.04 -0.05c0.01,-0.01 0.06,-0.07 0.06,-0.07 0,0.01 0,0.01 0.01,0.01l0.04 0.05c0.01,0.02 0.03,0.05 0.05,0.04 0.01,0 0.03,-0.03 0.04,-0.04 0.03,-0.02 0,-0.06 -0.03,-0.05 -0.01,0.01 -0.01,0.01 -0.01,0.02 -0.01,-0.01 -0.07,-0.09 -0.08,-0.1 -0.01,-0.01 -0.03,-0.01 -0.04,0.01l-0.02 0.02c-0.01,0.01 -0.07,0.09 -0.08,0.09 0,0 -0.06,-0.07 -0.06,-0.07l-0.04 -0.05c-0.01,-0.01 -0.03,-0.01 -0.04,0 0,0 0,0 0,0 0,0 0,0 0,0l0 0.01c-0.01,0 -0.01,0 -0.01,0l-0.05 0.07c0,0 -0.01,0.01 -0.01,0.02z"/>
   <path class="fil1" d="M0.44 0.53c0.01,-0.03 0.01,-0.03 0.01,-0.03 0,-0.01 -0.02,-0.02 -0.02,-0.03 -0.01,0 -0.01,0 -0.01,0 -0.02,-0.01 -0.04,-0.03 -0.06,-0.04 -0.03,-0.01 -0.07,-0.03 -0.12,-0.03 -0.02,-0.01 -0.06,-0.01 -0.08,0 -0.01,0 -0.01,0.02 0,0.04 0.01,0.02 0.03,0.01 0.06,0.01 0.01,0.01 0.05,0.01 0.06,0.02 -0.01,0.01 -0.01,0.01 -0.01,0.04 -0.03,0 -0.09,0.04 -0.12,0.05 -0.01,0.01 -0.04,0.03 -0.03,0.05 0.01,0.01 0.01,0.02 0.03,0.02 0.01,0 0.02,-0.01 0.03,-0.01 0.07,-0.04 0.14,-0.07 0.22,-0.08 0.02,0 0.03,0 0.04,-0.01l0 0z"/>
   <path class="fil1" d="M0.58 0.53c-0.01,-0.03 -0.01,-0.03 -0.01,-0.03 0.01,-0.01 0.02,-0.02 0.03,-0.03 0,0 0,0 0,0 0.02,-0.01 0.04,-0.03 0.06,-0.04 0.04,-0.01 0.08,-0.03 0.12,-0.03 0.02,-0.01 0.06,-0.01 0.08,0 0.01,0 0.02,0.02 0.01,0.04 -0.02,0.02 -0.04,0.01 -0.06,0.01 -0.02,0.01 -0.06,0.01 -0.07,0.02 0.01,0.01 0.01,0.01 0.01,0.04 0.03,0 0.09,0.04 0.12,0.05 0.01,0.01 0.04,0.03 0.03,0.05 0,0.01 -0.01,0.02 -0.02,0.02 -0.02,0 -0.03,-0.01 -0.04,-0.01 -0.06,-0.04 -0.14,-0.07 -0.22,-0.08 -0.02,0 -0.03,0 -0.04,-0.01l0 0z"/>
   <path class="fil1" d="M0.35 0.18c-0.01,0.01 -0.01,0.01 -0.02,0.02l-0.01 0.01c0,0 0,0 0,0.01 -0.01,0 -0.01,0 -0.01,0 0,0.01 -0.01,0.01 -0.01,0.02 -0.01,0 -0.03,0.02 -0.04,0.02 -0.02,0.02 -0.04,0.03 -0.07,0.04 -0.02,0 -0.05,0 -0.05,0 -0.02,0.01 -0.03,0.04 0,0.06 0,0 0.01,0 0.02,0 0.06,0 0.14,-0.04 0.17,-0.08 0.01,-0.01 0.02,-0.01 0.03,-0.02 0.01,-0.02 0.04,-0.03 0.03,-0.06 0,-0.01 -0.02,-0.02 -0.04,-0.02z"/>
   <path class="fil1" d="M0.65 0.18c-0.02,0.01 -0.03,0.03 -0.01,0.05 0,0.01 0.01,0.01 0.01,0.01l0.02 0.03c0.01,0 0.03,0.03 0.04,0.03 0.02,0.02 0.05,0.03 0.08,0.04 0.02,0.01 0.07,0.03 0.09,0.02 0.02,0 0.03,-0.03 0.02,-0.05 -0.02,-0.02 -0.05,0 -0.12,-0.03 -0.01,-0.01 -0.02,-0.02 -0.03,-0.03 -0.01,0 -0.01,0 -0.01,0l-0.02 -0.02c-0.01,-0.01 -0.01,-0.01 -0.02,-0.02 -0.01,-0.01 -0.01,-0.02 -0.02,-0.03 -0.01,0 -0.02,0 -0.03,0z"/>
  </g>
 </g>
</svg>
