<?xml version="1.0" encoding="UTF-8"?>
<!DOCTYPE svg PUBLIC "-//W3C//DTD SVG 1.1//EN" "http://www.w3.org/Graphics/SVG/1.1/DTD/svg11.dtd">
<!-- Creator: CorelDRAW (Evaluation Version) -->
<svg xmlns="http://www.w3.org/2000/svg" xml:space="preserve" width="100px" height="100px" version="1.1" style="shape-rendering:geometricPrecision; text-rendering:geometricPrecision; image-rendering:optimizeQuality; fill-rule:evenodd; clip-rule:evenodd"
viewBox="0 0 0.94 0.94"
 xmlns:xlink="http://www.w3.org/1999/xlink"
 xmlns:xodm="http://www.corel.com/coreldraw/odm/2003">
 <defs>
  <style type="text/css">
   <![CDATA[
    .fil1 {fill:#66461A}
    .fil0 {fill:#FECC4E}
   ]]>
  </style>
 </defs>
 <g id="PowerClip_x0020_Contents">
  <metadata id="CorelCorpID_0Corel-Layer"/>
  <g id="_2996633987888">
   <circle class="fil0" cx="0.47" cy="0.47" r="0.47"/>
   <path class="fil1" d="M0.47 0.74c0.04,0 0.06,-0.01 0.09,-0.03l0.02 -0.02c0.01,-0.01 0.04,-0.06 0.03,-0.07 -0.01,-0.01 -0.01,-0.01 -0.02,-0.01 -0.05,0.04 -0.2,0.03 -0.24,0.01 0,-0.01 -0.01,-0.01 -0.01,-0.01 -0.04,0 0.01,0.08 0.02,0.09 0.01,0 0.01,0 0.01,0 0,0.01 0,0.01 0.01,0.01 0.03,0.02 0.04,0.03 0.09,0.03z"/>
   <path class="fil1" d="M0.2 0.4c-0.02,0.01 0.03,0.07 0.04,0.08 0,0 0.02,0.02 0.03,0.02 0.04,0.02 0.09,0 0.12,-0.02l0.01 -0.01c0.01,-0.01 0.04,-0.06 0.02,-0.07 -0.01,0 -0.02,0.01 -0.03,0.02 -0.04,0.01 -0.11,0.01 -0.15,0 -0.01,-0.01 -0.03,-0.02 -0.04,-0.02z"/>
   <path class="fil1" d="M0.52 0.4c-0.03,0.01 0,0.05 0.01,0.06l0.03 0.02c0,0.01 0.01,0.01 0.03,0.02 0.03,0.01 0.07,0.01 0.1,-0.02l0.02 -0.02c0.01,-0.01 0.04,-0.05 0.02,-0.06 -0.01,0 -0.02,0.01 -0.03,0.02 -0.04,0.01 -0.11,0.01 -0.15,0 -0.01,-0.01 -0.03,-0.02 -0.03,-0.02z"/>
   <path class="fil1" d="M0.34 0.21c-0.05,0 -0.11,0.02 -0.14,0.05l-0.01 0.01c-0.01,0 0,0 -0.01,0 -0.01,0.01 -0.01,0.01 -0.01,0.02 -0.03,0.03 0,0.05 0.02,0.05 0.01,-0.01 0.02,-0.02 0.03,-0.03 0.01,-0.01 0.04,-0.03 0.05,-0.04 0.03,-0.01 0.06,-0.01 0.09,-0.01 0.01,0 0.03,0 0.04,0 0.01,-0.01 0.02,-0.02 0.01,-0.04 -0.01,-0.02 -0.05,-0.02 -0.07,-0.01z"/>
   <path class="fil1" d="M0.56 0.21c-0.01,0 -0.02,0 -0.03,0.01 -0.01,0.01 -0.01,0.02 0,0.03 0.01,0.01 0.02,0.01 0.04,0.01 0.01,0 0.03,0 0.05,0 0.03,0.01 0.07,0.02 0.1,0.05l0.01 0.01c0.03,0.04 0.07,0 0.04,-0.03 0,0 0,0 0,0 -0.01,-0.01 0,0 -0.02,-0.02 0,0 0,0 -0.01,-0.01 -0.05,-0.04 -0.11,-0.06 -0.18,-0.05z"/>
  </g>
 </g>
</svg>
