<?xml version="1.0" encoding="UTF-8"?>
<!DOCTYPE svg PUBLIC "-//W3C//DTD SVG 1.1//EN" "http://www.w3.org/Graphics/SVG/1.1/DTD/svg11.dtd">
<!-- Creator: CorelDRAW (Evaluation Version) -->
<svg xmlns="http://www.w3.org/2000/svg" xml:space="preserve" width="50px" height="50px" version="1.1" style="shape-rendering:geometricPrecision; text-rendering:geometricPrecision; image-rendering:optimizeQuality; fill-rule:evenodd; clip-rule:evenodd"
viewBox="0 0 0.37 0.37"
 xmlns:xlink="http://www.w3.org/1999/xlink"
 xmlns:xodm="http://www.corel.com/coreldraw/odm/2003">
 <defs>
  <style type="text/css">
   <![CDATA[
    .fil0 {fill:#99CC66}
   ]]>
  </style>
 </defs>
 <g id="PowerClip_x0020_Contents">
  <metadata id="CorelCorpID_0Corel-Layer"/>
  <path class="fil0" d="M0 0.19c0,0.02 0.01,0.02 0.03,0.02 0.01,0.01 0.02,0.01 0.03,0.02 0.01,0 0.02,0.01 0.03,0.01 0.01,0.01 0.01,0.02 0.02,0.03 0.01,0.01 0.02,0.01 0.03,0.02 0,0.01 0.01,0.02 0.01,0.03 0.01,0.03 0.02,0.06 0.04,0.05 0.01,0 0.02,-0.02 0.02,-0.03 0.02,-0.03 0.03,-0.06 0.06,-0.08 0.06,-0.05 0.12,-0.04 0.1,-0.08 -0.01,-0.01 -0.06,-0.03 -0.09,-0.05l-0.02 -0.02c0,0 0,0 -0.01,0 0,-0.01 -0.01,-0.02 -0.02,-0.03 -0.02,-0.04 -0.02,-0.09 -0.05,-0.08 -0.01,0 -0.01,0.02 -0.02,0.03 0,0.01 -0.01,0.02 -0.01,0.03 -0.03,0.07 -0.07,0.08 -0.13,0.11 -0.01,0 -0.02,0.01 -0.02,0.02z"/>
 </g>
</svg>
