<?xml version="1.0" encoding="UTF-8"?>
<!DOCTYPE svg PUBLIC "-//W3C//DTD SVG 1.1//EN" "http://www.w3.org/Graphics/SVG/1.1/DTD/svg11.dtd">
<!-- Creator: CorelDRAW (Evaluation Version) -->
<svg xmlns="http://www.w3.org/2000/svg" xml:space="preserve" width="100px" height="100px" version="1.1" style="shape-rendering:geometricPrecision; text-rendering:geometricPrecision; image-rendering:optimizeQuality; fill-rule:evenodd; clip-rule:evenodd"
viewBox="0 0 0.98 0.98"
 xmlns:xlink="http://www.w3.org/1999/xlink"
 xmlns:xodm="http://www.corel.com/coreldraw/odm/2003">
 <defs>
  <style type="text/css">
   <![CDATA[
    .fil0 {fill:#CCCCCC}
   ]]>
  </style>
 </defs>
 <g id="PowerClip_x0020_Contents">
  <metadata id="CorelCorpID_0Corel-Layer"/>
  <path class="fil0" d="M0.08 0l0.28 0c0.05,0 0.09,0.04 0.09,0.08l0 0.16c0,0.05 -0.04,0.09 -0.09,0.09l-0.28 0c-0.04,0 -0.08,-0.04 -0.08,-0.09l0 -0.16c0,-0.04 0.04,-0.08 0.08,-0.08zm0.28 0.98l-0.28 0c-0.04,0 -0.08,-0.04 -0.08,-0.08l0 -0.41c0,-0.04 0.04,-0.08 0.08,-0.08l0.28 0c0.05,0 0.09,0.04 0.09,0.08l0 0.41c0,0.04 -0.04,0.08 -0.09,0.08zm0.54 0l-0.29 0c-0.04,0 -0.08,-0.04 -0.08,-0.08l0 -0.16c0,-0.05 0.04,-0.09 0.08,-0.09l0.29 0c0.04,0 0.08,0.04 0.08,0.09l0 0.16c0,0.04 -0.04,0.08 -0.08,0.08zm-0.29 -0.98l0.29 0c0.04,0 0.08,0.04 0.08,0.08l0 0.41c0,0.04 -0.04,0.08 -0.08,0.08l-0.29 0c-0.04,0 -0.08,-0.04 -0.08,-0.08l0 -0.41c0,-0.04 0.04,-0.08 0.08,-0.08z"/>
 </g>
</svg>
