<?xml version="1.0" encoding="UTF-8"?>
<!DOCTYPE svg PUBLIC "-//W3C//DTD SVG 1.1//EN" "http://www.w3.org/Graphics/SVG/1.1/DTD/svg11.dtd">
<!-- Creator: CorelDRAW (Evaluation Version) -->
<svg xmlns="http://www.w3.org/2000/svg" xml:space="preserve" width="1in" height="0.666644in" version="1.1" style="shape-rendering:geometricPrecision; text-rendering:geometricPrecision; image-rendering:optimizeQuality; fill-rule:evenodd; clip-rule:evenodd"
viewBox="0 0 19.46 12.97"
 xmlns:xlink="http://www.w3.org/1999/xlink"
 xmlns:xodm="http://www.corel.com/coreldraw/odm/2003">
 <defs>
  <style type="text/css">
   <![CDATA[
    .fil0 {fill:#CCCCCC}
   ]]>
  </style>
 </defs>
 <g id="PowerClip_x0020_Contents">
  <metadata id="CorelCorpID_0Corel-Layer"/>
  <path class="fil0" d="M1.17 0l4.14 0c0.65,0 1.17,0.53 1.17,1.17l0 4.14c0,0.65 0.53,1.17 1.17,1.17l4.14 0c0.65,0 1.17,-0.53 1.17,-1.17l0 -4.14c0,-0.65 0.53,-1.17 1.17,-1.17l4.14 0c0.64,0 1.17,0.53 1.17,1.17l0 4.14c0,0.65 -0.53,1.17 -1.17,1.17l-4.14 0c-0.64,0 -1.17,0.53 -1.17,1.17l0 4.14c0,0.65 -0.53,1.17 -1.17,1.17l-4.14 0c-0.65,0 -1.17,-0.53 -1.17,-1.17l0 -4.14c0,-0.65 -0.53,-1.17 -1.17,-1.17l-4.14 0c-0.65,0 -1.17,-0.53 -1.17,-1.17l0 -4.14c0,-0.65 0.53,-1.17 1.17,-1.17z"/>
 </g>
</svg>
