<?xml version="1.0" encoding="UTF-8"?>
<!DOCTYPE svg PUBLIC "-//W3C//DTD SVG 1.1//EN" "http://www.w3.org/Graphics/SVG/1.1/DTD/svg11.dtd">
<!-- Creator: CorelDRAW (Evaluation Version) -->
<svg xmlns="http://www.w3.org/2000/svg" xml:space="preserve" width="2.35663in" height="1.89134in" version="1.1" style="shape-rendering:geometricPrecision; text-rendering:geometricPrecision; image-rendering:optimizeQuality; fill-rule:evenodd; clip-rule:evenodd"
viewBox="0 0 246.64 197.94"
 xmlns:xlink="http://www.w3.org/1999/xlink"
 xmlns:xodm="http://www.corel.com/coreldraw/odm/2003">
 <defs>
  <style type="text/css">
   <![CDATA[
    .fil0 {fill:gray}
   ]]>
  </style>
 </defs>
 <g id="Layer_x0020_1">
  <metadata id="CorelCorpID_0Corel-Layer"/>
  <path class="fil0" d="M-0 99.2c2.45,4.95 19.35,21.52 23.93,25.18 7.27,5.82 20.4,18.14 29.54,21.16l11.24 -11.12c-12.65,-9.51 -32.35,-23.65 -38.53,-35.22 5.81,-9.16 31.54,-33.09 45.18,-38.37 -5.31,12.36 -10.52,16.85 -11.75,34.05 -0.95,13.3 2.62,26.74 8.24,35.99l10.01 -9.58c-17.67,-47.58 25.28,-87.68 67.18,-67.78l17.17 -16.41c-30.71,-13.55 -69.46,-6.29 -96.14,7.82 -22.14,11.71 -53.46,35.33 -66.08,54.28zm90.27 8.65c4.33,-2.02 39.78,-37.59 41.37,-41.5 -27.46,-4.97 -45.28,14.38 -41.37,41.5zm23.87 23.89c28.21,5.02 46.56,-13.43 42.07,-41.15l-42.07 41.15zm67.73 -67.79c11.42,8.73 32.79,24 38.69,35.26 -6.27,12.15 -31.83,31.42 -46.08,39.1 4.84,-10.47 10.9,-16 12.54,-32.04 1.4,-13.72 -1.9,-29.46 -8.54,-38.17l-9.69 9.07c16.54,47.28 -21.1,84.32 -67.35,67.68l-16.69 16.32c41.68,21.26 98.77,-3.53 131.6,-31.34 6.18,-5.23 27.68,-24.51 30.29,-30.62 -6.52,-12.18 -39.35,-37.81 -52.17,-46.36 -5.33,2.34 -8.73,7.53 -12.6,11.1zm39.03 -61.18c-8.54,-4.15 -10.66,-3.91 -16.92,2.74l-37.03 37.1c-43.79,43.64 -92.08,93.64 -135.92,135.9 -16,15.42 0.47,26.18 11.59,14.5 4.33,-4.54 7.83,-7.95 12.29,-12.42l148.23 -148.29c16.89,-16.4 21.03,-17.94 17.76,-29.53z"/>
 </g>
</svg>
