<?xml version="1.0" encoding="UTF-8"?>
<!DOCTYPE svg PUBLIC "-//W3C//DTD SVG 1.1//EN" "http://www.w3.org/Graphics/SVG/1.1/DTD/svg11.dtd">
<!-- Creator: CorelDRAW (Evaluation Version) -->
<svg xmlns="http://www.w3.org/2000/svg" xml:space="preserve" width="141px" height="100px" version="1.1" style="shape-rendering:geometricPrecision; text-rendering:geometricPrecision; image-rendering:optimizeQuality; fill-rule:evenodd; clip-rule:evenodd"
viewBox="0 0 1.64 1.18"
 xmlns:xlink="http://www.w3.org/1999/xlink"
 xmlns:xodm="http://www.corel.com/coreldraw/odm/2003">
 <defs>
  <style type="text/css">
   <![CDATA[
    .fil0 {fill:#CCCCCC}
   ]]>
  </style>
 </defs>
 <g id="PowerClip_x0020_Contents">
  <metadata id="CorelCorpID_0Corel-Layer"/>
  <path class="fil0" d="M1.3 0.15c0,0.01 0.01,0.01 0.01,0.03l0.1 0.26c0.01,0.03 0.03,0.07 0.04,0.1 -0.04,0 -0.09,0 -0.12,0 -0.04,0 -0.08,0 -0.12,0 -0.04,0 -0.06,0.01 -0.08,0.04 -0.01,0.02 -0.01,0.08 -0.01,0.11l-0.61 0c0,-0.06 0.02,-0.15 -0.08,-0.15 -0.05,0 -0.21,0 -0.24,0 0.01,-0.03 0.06,-0.16 0.07,-0.2 0.01,-0.03 0.03,-0.06 0.04,-0.09 0,-0.02 0.01,-0.03 0.02,-0.05l0.01 -0.03c0,-0.01 0,-0.01 0.01,-0.02 0.32,0 0.64,0 0.96,0zm-0.97 -0.15c-0.02,0 -0.06,0 -0.07,0 -0.02,0.01 -0.04,0.03 -0.05,0.05l-0.18 0.48c-0.03,0.07 -0.03,0.05 -0.03,0.14l0 0.41c0,0.03 0,0.04 0.02,0.07 0.02,0.03 0.08,0.03 0.13,0.03 0.45,0 0.89,0 1.33,0 0.09,0 0.16,0 0.16,-0.1l0 -0.41c0,-0.09 0,-0.06 -0.03,-0.14 -0.02,-0.04 -0.03,-0.08 -0.05,-0.12 -0.03,-0.08 -0.06,-0.16 -0.09,-0.24 -0.01,-0.04 -0.03,-0.09 -0.05,-0.12 0,-0.02 -0.02,-0.04 -0.04,-0.04 -0.02,-0.01 -0.05,-0.01 -0.08,-0.01 -0.32,0 -0.64,0 -0.97,0z"/>
 </g>
</svg>
