<?xml version="1.0" encoding="UTF-8"?>
<!DOCTYPE svg PUBLIC "-//W3C//DTD SVG 1.1//EN" "http://www.w3.org/Graphics/SVG/1.1/DTD/svg11.dtd">
<!-- Creator: CorelDRAW (Evaluation Version) -->
<svg xmlns="http://www.w3.org/2000/svg" xml:space="preserve" width="2.35639in" height="1.33106in" version="1.1" style="shape-rendering:geometricPrecision; text-rendering:geometricPrecision; image-rendering:optimizeQuality; fill-rule:evenodd; clip-rule:evenodd"
viewBox="0 0 311.9 176.18"
 xmlns:xlink="http://www.w3.org/1999/xlink"
 xmlns:xodm="http://www.corel.com/coreldraw/odm/2003">
 <defs>
  <style type="text/css">
   <![CDATA[
    .fil0 {fill:gray}
   ]]>
  </style>
 </defs>
 <g id="Layer_x0020_1">
  <metadata id="CorelCorpID_0Corel-Layer"/>
  <path class="fil0" d="M90.12 136.91c-18.06,-7.05 -48.57,-36.37 -56.98,-48.54 5.57,-10.38 40.66,-42.64 56.88,-48.36 -7.49,16.04 -15.28,25.23 -14.93,48.37 0.4,26.33 8.3,30.28 15.03,48.54zm65.83 -90.74c23.15,0 41.92,18.77 41.92,41.92 0,23.15 -18.77,41.92 -41.92,41.92 -23.15,0 -41.91,-18.77 -41.91,-41.92 0,-23.15 18.77,-41.92 41.91,-41.92zm9.58 105.14c-85.12,11.71 -101.79,-114.7 -16.97,-126.13 35.84,-4.83 66.77,22.79 70.71,54.87 4.58,37.33 -22.54,66.97 -53.74,71.26zm54.9 -13.41c7.87,-16.6 16.18,-23.71 16.31,-49.52 0.12,-24.96 -8.06,-33.16 -16.07,-49.44 15.19,6.72 52.76,38.39 58.25,49.42 -7.66,13.3 -40.28,41.07 -58.49,49.54zm61.07 -17.53c5.26,-4.19 28.01,-27.23 30.4,-32.01 -6.47,-14.86 -50.99,-48.1 -64.06,-57.22 -89.78,-62.67 -167.38,-21.33 -233.54,40.79 -7.61,7.14 -9.8,8.2 -14.3,16.43 10.21,16.09 43.16,44.58 63.52,57.27 24.28,15.14 55.61,30.45 92.19,30.54 52.16,0.13 89.93,-27.25 125.79,-55.8z"/>
 </g>
</svg>
